<mxfile host="app.diagrams.net" modified="2024-07-03T23:11:45.556Z" agent="Mozilla/5.0 (X11; Linux x86_64; rv:127.0) Gecko/20100101 Firefox/127.0" etag="ubnDd9QWi11Wpn1j9lOL" version="24.6.3" type="device">
  <diagram name="Page-1" id="lC_K-WHXxxt2Ax8K_2x0">
    <mxGraphModel dx="2272" dy="791" grid="1" gridSize="10" guides="1" tooltips="1" connect="1" arrows="1" fold="1" page="1" pageScale="1" pageWidth="850" pageHeight="1100" math="0" shadow="0">
      <root>
        <mxCell id="0" />
        <mxCell id="1" parent="0" />
        <mxCell id="6P-Y5-W-Sp3tQT43gubk-4" style="edgeStyle=orthogonalEdgeStyle;rounded=0;orthogonalLoop=1;jettySize=auto;html=1;" edge="1" parent="1" target="6P-Y5-W-Sp3tQT43gubk-2">
          <mxGeometry relative="1" as="geometry">
            <mxPoint x="-30" y="227.5" as="sourcePoint" />
          </mxGeometry>
        </mxCell>
        <mxCell id="6P-Y5-W-Sp3tQT43gubk-5" style="edgeStyle=orthogonalEdgeStyle;rounded=0;orthogonalLoop=1;jettySize=auto;html=1;" edge="1" parent="1" source="6P-Y5-W-Sp3tQT43gubk-2">
          <mxGeometry relative="1" as="geometry">
            <mxPoint x="330" y="227.5" as="targetPoint" />
          </mxGeometry>
        </mxCell>
        <mxCell id="6P-Y5-W-Sp3tQT43gubk-2" value="" style="rounded=1;whiteSpace=wrap;html=1;" vertex="1" parent="1">
          <mxGeometry x="70" y="197.5" width="180" height="60" as="geometry" />
        </mxCell>
        <mxCell id="6P-Y5-W-Sp3tQT43gubk-7" style="edgeStyle=orthogonalEdgeStyle;rounded=0;orthogonalLoop=1;jettySize=auto;html=1;" edge="1" parent="1" target="6P-Y5-W-Sp3tQT43gubk-6">
          <mxGeometry relative="1" as="geometry">
            <mxPoint x="510" y="227.5" as="sourcePoint" />
          </mxGeometry>
        </mxCell>
        <mxCell id="6P-Y5-W-Sp3tQT43gubk-6" value="STORAGE" style="rounded=0;whiteSpace=wrap;html=1;" vertex="1" parent="1">
          <mxGeometry x="600" y="180" width="120" height="95" as="geometry" />
        </mxCell>
        <mxCell id="6P-Y5-W-Sp3tQT43gubk-10" value="" style="rounded=1;whiteSpace=wrap;html=1;" vertex="1" parent="1">
          <mxGeometry x="90" y="480" width="560" height="270" as="geometry" />
        </mxCell>
        <mxCell id="6P-Y5-W-Sp3tQT43gubk-12" value="QUEUE" style="rounded=0;whiteSpace=wrap;html=1;" vertex="1" parent="1">
          <mxGeometry x="170" y="590" width="120" height="60" as="geometry" />
        </mxCell>
        <mxCell id="6P-Y5-W-Sp3tQT43gubk-13" value="SERVER" style="rounded=1;whiteSpace=wrap;html=1;" vertex="1" parent="1">
          <mxGeometry x="390" y="570" width="120" height="40" as="geometry" />
        </mxCell>
        <mxCell id="6P-Y5-W-Sp3tQT43gubk-14" value="SERVER" style="rounded=1;whiteSpace=wrap;html=1;" vertex="1" parent="1">
          <mxGeometry x="400" y="580" width="120" height="40" as="geometry" />
        </mxCell>
        <mxCell id="6P-Y5-W-Sp3tQT43gubk-15" value="SERVER" style="rounded=1;whiteSpace=wrap;html=1;" vertex="1" parent="1">
          <mxGeometry x="410" y="590" width="120" height="40" as="geometry" />
        </mxCell>
        <mxCell id="6P-Y5-W-Sp3tQT43gubk-16" value="SERVER" style="rounded=1;whiteSpace=wrap;html=1;" vertex="1" parent="1">
          <mxGeometry x="420" y="600" width="120" height="40" as="geometry" />
        </mxCell>
        <mxCell id="6P-Y5-W-Sp3tQT43gubk-17" value="SERVER" style="rounded=1;whiteSpace=wrap;html=1;" vertex="1" parent="1">
          <mxGeometry x="430" y="610" width="120" height="40" as="geometry" />
        </mxCell>
        <mxCell id="6P-Y5-W-Sp3tQT43gubk-18" value="" style="endArrow=classic;html=1;rounded=0;entryX=0;entryY=0.5;entryDx=0;entryDy=0;" edge="1" parent="1" target="6P-Y5-W-Sp3tQT43gubk-10">
          <mxGeometry width="50" height="50" relative="1" as="geometry">
            <mxPoint x="-30" y="615" as="sourcePoint" />
            <mxPoint x="30" y="590" as="targetPoint" />
          </mxGeometry>
        </mxCell>
        <mxCell id="6P-Y5-W-Sp3tQT43gubk-19" value="ARRIVAL" style="edgeLabel;html=1;align=center;verticalAlign=middle;resizable=0;points=[];" vertex="1" connectable="0" parent="6P-Y5-W-Sp3tQT43gubk-18">
          <mxGeometry x="0.0714" y="-2" relative="1" as="geometry">
            <mxPoint as="offset" />
          </mxGeometry>
        </mxCell>
        <mxCell id="6P-Y5-W-Sp3tQT43gubk-20" value="" style="endArrow=classic;html=1;rounded=0;exitX=1;exitY=0.5;exitDx=0;exitDy=0;" edge="1" parent="1" source="6P-Y5-W-Sp3tQT43gubk-10">
          <mxGeometry width="50" height="50" relative="1" as="geometry">
            <mxPoint x="400" y="590" as="sourcePoint" />
            <mxPoint x="830" y="615" as="targetPoint" />
          </mxGeometry>
        </mxCell>
        <mxCell id="6P-Y5-W-Sp3tQT43gubk-21" value="DEPARTURE" style="edgeLabel;html=1;align=center;verticalAlign=middle;resizable=0;points=[];" vertex="1" connectable="0" parent="6P-Y5-W-Sp3tQT43gubk-20">
          <mxGeometry x="0.1368" y="4" relative="1" as="geometry">
            <mxPoint as="offset" />
          </mxGeometry>
        </mxCell>
        <mxCell id="6P-Y5-W-Sp3tQT43gubk-22" value="WAITING TIME" style="text;html=1;align=center;verticalAlign=middle;whiteSpace=wrap;rounded=0;" vertex="1" parent="1">
          <mxGeometry x="200" y="830" width="100" height="30" as="geometry" />
        </mxCell>
        <mxCell id="6P-Y5-W-Sp3tQT43gubk-23" value="SERVICE TIME" style="text;html=1;align=center;verticalAlign=middle;whiteSpace=wrap;rounded=0;" vertex="1" parent="1">
          <mxGeometry x="415" y="830" width="100" height="30" as="geometry" />
        </mxCell>
        <mxCell id="6P-Y5-W-Sp3tQT43gubk-24" value="" style="rounded=0;whiteSpace=wrap;html=1;" vertex="1" parent="1">
          <mxGeometry x="90" y="217.5" width="40" height="20" as="geometry" />
        </mxCell>
        <mxCell id="6P-Y5-W-Sp3tQT43gubk-25" value="" style="rounded=1;whiteSpace=wrap;html=1;" vertex="1" parent="1">
          <mxGeometry x="150" y="207.5" width="50" height="20" as="geometry" />
        </mxCell>
        <mxCell id="6P-Y5-W-Sp3tQT43gubk-26" value="" style="rounded=1;whiteSpace=wrap;html=1;" vertex="1" parent="1">
          <mxGeometry x="160" y="217.5" width="50" height="20" as="geometry" />
        </mxCell>
        <mxCell id="6P-Y5-W-Sp3tQT43gubk-27" value="" style="rounded=1;whiteSpace=wrap;html=1;" vertex="1" parent="1">
          <mxGeometry x="170" y="227.5" width="50" height="20" as="geometry" />
        </mxCell>
        <mxCell id="6P-Y5-W-Sp3tQT43gubk-29" value="" style="rounded=1;whiteSpace=wrap;html=1;" vertex="1" parent="1">
          <mxGeometry x="330" y="197.5" width="180" height="60" as="geometry" />
        </mxCell>
        <mxCell id="6P-Y5-W-Sp3tQT43gubk-30" value="" style="rounded=0;whiteSpace=wrap;html=1;" vertex="1" parent="1">
          <mxGeometry x="360" y="217.5" width="40" height="20" as="geometry" />
        </mxCell>
        <mxCell id="6P-Y5-W-Sp3tQT43gubk-31" value="" style="rounded=1;whiteSpace=wrap;html=1;" vertex="1" parent="1">
          <mxGeometry x="420" y="207.5" width="50" height="20" as="geometry" />
        </mxCell>
        <mxCell id="6P-Y5-W-Sp3tQT43gubk-32" value="" style="rounded=1;whiteSpace=wrap;html=1;" vertex="1" parent="1">
          <mxGeometry x="430" y="217.5" width="50" height="20" as="geometry" />
        </mxCell>
        <mxCell id="6P-Y5-W-Sp3tQT43gubk-33" value="" style="rounded=1;whiteSpace=wrap;html=1;" vertex="1" parent="1">
          <mxGeometry x="440" y="227.5" width="50" height="20" as="geometry" />
        </mxCell>
        <mxCell id="6P-Y5-W-Sp3tQT43gubk-34" value="" style="endArrow=classic;html=1;rounded=0;exitX=1;exitY=0.5;exitDx=0;exitDy=0;entryX=0;entryY=0.75;entryDx=0;entryDy=0;" edge="1" parent="1" source="6P-Y5-W-Sp3tQT43gubk-12" target="6P-Y5-W-Sp3tQT43gubk-15">
          <mxGeometry width="50" height="50" relative="1" as="geometry">
            <mxPoint x="370" y="390" as="sourcePoint" />
            <mxPoint x="440" y="390" as="targetPoint" />
          </mxGeometry>
        </mxCell>
        <mxCell id="6P-Y5-W-Sp3tQT43gubk-36" value="" style="endArrow=none;html=1;rounded=0;" edge="1" parent="1">
          <mxGeometry width="50" height="50" relative="1" as="geometry">
            <mxPoint x="160" y="820" as="sourcePoint" />
            <mxPoint x="160" y="780" as="targetPoint" />
          </mxGeometry>
        </mxCell>
        <mxCell id="6P-Y5-W-Sp3tQT43gubk-37" value="" style="endArrow=none;html=1;rounded=0;" edge="1" parent="1">
          <mxGeometry width="50" height="50" relative="1" as="geometry">
            <mxPoint x="340" y="820" as="sourcePoint" />
            <mxPoint x="340" y="780" as="targetPoint" />
          </mxGeometry>
        </mxCell>
        <mxCell id="6P-Y5-W-Sp3tQT43gubk-38" value="" style="endArrow=none;html=1;rounded=0;" edge="1" parent="1">
          <mxGeometry width="50" height="50" relative="1" as="geometry">
            <mxPoint x="590" y="820" as="sourcePoint" />
            <mxPoint x="590" y="780" as="targetPoint" />
          </mxGeometry>
        </mxCell>
        <mxCell id="6P-Y5-W-Sp3tQT43gubk-39" value="" style="endArrow=classic;startArrow=classic;html=1;rounded=0;" edge="1" parent="1">
          <mxGeometry width="50" height="50" relative="1" as="geometry">
            <mxPoint x="160" y="800" as="sourcePoint" />
            <mxPoint x="340" y="800" as="targetPoint" />
          </mxGeometry>
        </mxCell>
        <mxCell id="6P-Y5-W-Sp3tQT43gubk-40" value="" style="endArrow=classic;startArrow=classic;html=1;rounded=0;" edge="1" parent="1">
          <mxGeometry width="50" height="50" relative="1" as="geometry">
            <mxPoint x="340" y="800" as="sourcePoint" />
            <mxPoint x="590" y="800" as="targetPoint" />
          </mxGeometry>
        </mxCell>
        <mxCell id="6P-Y5-W-Sp3tQT43gubk-41" value="" style="endArrow=none;html=1;rounded=0;" edge="1" parent="1">
          <mxGeometry width="50" height="50" relative="1" as="geometry">
            <mxPoint x="160" y="910" as="sourcePoint" />
            <mxPoint x="160" y="870" as="targetPoint" />
          </mxGeometry>
        </mxCell>
        <mxCell id="6P-Y5-W-Sp3tQT43gubk-42" value="" style="endArrow=none;html=1;rounded=0;" edge="1" parent="1">
          <mxGeometry width="50" height="50" relative="1" as="geometry">
            <mxPoint x="590" y="910" as="sourcePoint" />
            <mxPoint x="590" y="870" as="targetPoint" />
          </mxGeometry>
        </mxCell>
        <mxCell id="6P-Y5-W-Sp3tQT43gubk-44" value="" style="endArrow=classic;startArrow=classic;html=1;rounded=0;" edge="1" parent="1">
          <mxGeometry width="50" height="50" relative="1" as="geometry">
            <mxPoint x="160" y="890" as="sourcePoint" />
            <mxPoint x="590" y="890" as="targetPoint" />
          </mxGeometry>
        </mxCell>
        <mxCell id="6P-Y5-W-Sp3tQT43gubk-45" value="COMPLETION TIME" style="text;html=1;align=center;verticalAlign=middle;whiteSpace=wrap;rounded=0;" vertex="1" parent="1">
          <mxGeometry x="290" y="910" width="170" height="30" as="geometry" />
        </mxCell>
        <mxCell id="6P-Y5-W-Sp3tQT43gubk-46" value="" style="endArrow=none;dashed=1;html=1;rounded=0;" edge="1" parent="1">
          <mxGeometry width="50" height="50" relative="1" as="geometry">
            <mxPoint x="120" y="460" as="sourcePoint" />
            <mxPoint x="330" y="270" as="targetPoint" />
          </mxGeometry>
        </mxCell>
        <mxCell id="6P-Y5-W-Sp3tQT43gubk-47" value="" style="endArrow=none;dashed=1;html=1;rounded=0;" edge="1" parent="1">
          <mxGeometry width="50" height="50" relative="1" as="geometry">
            <mxPoint x="620" y="460" as="sourcePoint" />
            <mxPoint x="490" y="270" as="targetPoint" />
          </mxGeometry>
        </mxCell>
      </root>
    </mxGraphModel>
  </diagram>
</mxfile>
